# xmcd CD database file
#
# Track frame offsets:
#	180
#	15765
#	31522
#	43614
#	54869
#	68991
#	81909
#	95434
#	110492
#	124213
#	137862
#	151448
#	166116
#	180673
#	194896
#	209079
#	222756
#	235835
#	249793
#	262036
#	276729
#	288441
#	303205
#	316183
#
# Disc length: 4403 seconds
#
# Revision: 3
# Processed by: cddbd v1.5PL3 Copyright (c) Steve Scherf et al.
# Submitted via: CDex 1.51
#
DISCID=56113118
DTITLE=Various Artist - The Rough Guide To Classic Jazz
DYEAR=1997
DGENRE=Jazz
TTITLE0=Jelly-Roll Morton's Red Hot Peppers: Dr Jazz
TTITLE1=Jelly-Roll Morton's Red Hot Peppers: Smoke-House Blues
TTITLE2=Original Dixieland Jazz Band: Dixie Jass Band One-Step
TTITLE3=King Oliver's Creole Jazz Band: Dippermouth Blues
TTITLE4=New Orleans Rhythm Kings: Mr Jelly Lord
TTITLE5=Fletcher Henderson and His Orchestra: Sugar Foot Stomp
TTITLE6=Louis Armstrong and His Hot Seven: Potato Head Blues
TTITLE7=Louis Armstrong and His Hot Five: West End Blues
TTITLE8=Ma Rainey with her Tug Jug Washboard Band: Hear Me Talking To You
TTITLE9=Bessie Smith: Nobody Knows You When You're Down And Out
TTITLE10=J.C. Cobb and His Grains Of Corn: Shake That Jelly-Roll
TTITLE11=State Street Ramblers: Stomp Your Stuff
TTITLE12=Pinetop Smith: Pinetop's Boogie Woogie
TTITLE13=McKenzie and Condon's Chicagoans: Nobody's Sweetheart
TTITLE14=Bix Beiderbecke and His Gang: Since My Girl Turned Me Down
TTITLE15=The Charleston Chasers: Beale Street Blues
TTITLE16=Miff Mole and His Molers: Imagination
TTITLE17=Eddie Condon and His Footwarmers: Makin' Friends
TTITLE18=Fats Waller and His Buddies: The Minor Drag
TTITLE19=Clarence Williams Washboard Five: Log Cabin Blues
TTITLE20=Benny Morten's Kansas City Orchestra: South
TTITLE21=Duke Ellington and His Orchestra: Creole Love Call
TTITLE22=Don Redman and His Orchestra: Hot And Anxious
TTITLE23=Fletcher Henderson and His Orchestra: New King Porter Stomp
EXTD=YEAR: 1997
EXTT0=
EXTT1=
EXTT2=
EXTT3=
EXTT4=
EXTT5=
EXTT6=
EXTT7=
EXTT8=
EXTT9=
EXTT10=
EXTT11=
EXTT12=
EXTT13=
EXTT14=
EXTT15=
EXTT16=
EXTT17=
EXTT18=
EXTT19=
EXTT20=
EXTT21=
EXTT22=
EXTT23=
PLAYORDER=
